PathFileType	4	(X/Y/Z)	Kaydara																																																																																																																									
DataRate	CameraRate	NumFrames	NumMarkers	Units	OrigDataRate	OrigDataStartFrame	OrigNumFrames																																																																																																																					
30	30	9	41	mm	30	98	195																																																																																																																					
Frame#	Time	NABA_LFHD			NABA_RFHD			NABA_LBHD			NABA_RBHD			NABA_LFTShould			NABA_RFTShould			NABA_LRRShould			NABA_RRRShould			NABA_T10			NABA_STRN			NABA_TRUN			NABA_LSHO			NABA_LUPA			NABA_LELB			NABA_LFRM			NABA_LWRA			NABA_LWRB			NABA_LFIN			NABA_RSHO			NABA_RUPA			NABA_RELB			NABA_RFRM			NABA_RWRA			NABA_RWRB			NABA_RFIN			NABA_LFWT			NABA_RFWT			NABA_LBWT			NABA_RBWT			NABA_LTHI			NABA_LKNE			NABA_LSHN			NABA_LANK			NABA_LHEE			NABA_LTOE			NABA_RTHI			NABA_RKNE			NABA_RSHN			NABA_RANK			NABA_RHEE			NABA_RTOE		
		X1	Y1	Z1	X2	Y2	Z2	X3	Y3	Z3	X4	Y4	Z4	X5	Y5	Z5	X6	Y6	Z6	X7	Y7	Z7	X8	Y8	Z8	X9	Y9	Z9	X10	Y10	Z10	X11	Y11	Z11	X12	Y12	Z12	X13	Y13	Z13	X14	Y14	Z14	X15	Y15	Z15	X16	Y16	Z16	X17	Y17	Z17	X18	Y18	Z18	X19	Y19	Z19	X20	Y20	Z20	X21	Y21	Z21	X22	Y22	Z22	X23	Y23	Z23	X24	Y24	Z24	X25	Y25	Z25	X26	Y26	Z26	X27	Y27	Z27	X28	Y28	Z28	X29	Y29	Z29	X30	Y30	Z30	X31	Y31	Z31	X32	Y32	Z32	X33	Y33	Z33	X34	Y34	Z34	X35	Y35	Z35	X36	Y36	Z36	X37	Y37	Z37	X38	Y38	Z38	X39	Y39	Z39	X40	Y40	Z40	X41	Y41	Z41
																																																																																																																												
98	3.243	210.97382	1601.96091	-1199.61723	41.81612	1581.05728	-1170.52322	220.31729	1581.54694	-1324.61777	4.96705	1571.72989	-1265.39345	199.68767	1328.7532	-1233.08159	63.88379	1325.45044	-1232.15561	196.74044	1381.6217	-1354.11469	47.72214	1377.71927	-1343.38913	131.3991	1216.23764	-1419.31046	132.21168	1273.84094	-1186.66008	132.01926	1177.69539	-1137.53311	296.99467	1348.36792	-1289.36783	345.77518	1123.05862	-1362.97333	359.26693	1036.4196	-1351.10611	349.23771	969.69757	-1383.96896	302.73207	810.93712	-1331.83853	373.21507	811.81038	-1339.38965	355.37804	743.90312	-1309.09012	-30.36288	1348.86612	-1277.658	-88.95391	1144.0712	-1322.37122	-125.38333	1030.16739	-1264.13292	-135.35309	937.81929	-1236.93619	-76.74373	830.09048	-1131.24222	-151.2001	823.53836	-1130.86739	-138.96129	794.42871	-1092.10922	249.99914	942.4604	-1212.18262	-11.9369	940.83977	-1242.19063	214.33279	1012.23579	-1385.6543	54.23205	1028.10265	-1403.13873	268.05048	644.98833	-1250.09651	248.58065	527.31754	-1141.39854	205.06927	330.47211	-1156.59393	244.06872	207.46	-1266.72684	188.31038	175.90389	-1334.66324	227.78255	89.92725	-1173.11974	16.14745	667.23663	-1405.98328	30.09297	497.28313	-1309.98047	55.60677	326.33812	-1342.68127	67.68865	140.1967	-1422.34665	126.02507	99.51197	-1488.8974	83.98695	70.15421	-1301.93604
99	3.277	209.68885	1596.58951	-1166.07727	40.56439	1575.47073	-1136.98387	219.05571	1576.19049	-1291.11298	3.75925	1566.07468	-1231.86882	198.92872	1323.57819	-1199.9575	62.85744	1320.64072	-1197.82326	195.03448	1375.89569	-1321.0083	46.15395	1372.38022	-1308.95432	128.34031	1210.33875	-1384.79431	131.48741	1269.5208	-1152.48871	131.5365	1173.35892	-1102.97112	295.79565	1342.51083	-1257.11143	342.43004	1119.75952	-1336.61423	356.73229	1032.75185	-1327.31079	345.28633	965.98808	-1360.23758	298.90226	806.50917	-1306.75415	369.38225	807.649	-1317.27188	351.01002	739.37141	-1287.29797	-31.58502	1344.03656	-1242.6255	-89.67682	1136.92596	-1282.46857	-126.20264	1025.3923	-1220.07759	-135.13939	934.04694	-1187.21535	-75.5213	834.1967	-1074.71573	-150.01405	826.42563	-1074.31168	-137.86827	800.50301	-1033.73619	248.77176	938.19542	-1176.50116	-13.43631	934.879	-1204.81339	211.94258	1006.74614	-1349.79202	51.79006	1022.51389	-1366.34018	263.81355	640.59074	-1210.80612	245.82973	525.04005	-1099.3602	200.2426	327.4271	-1080.53978	236.43833	183.83566	-1164.42825	180.49192	140.15985	-1225.11658	217.40856	88.62529	-1048.33679	15.91015	665.06477	-1376.48544	31.21931	491.83025	-1287.1817	58.46401	322.0414	-1327.84714	71.14375	139.97869	-1416.6478	130.74534	102.60222	-1485.05829	85.4778	69.53794	-1300.10132
100	3.31	209.35183	1589.06082	-1132.18468	40.24802	1568.73001	-1102.79541	218.58526	1567.93213	-1257.10388	3.29913	1558.84552	-1197.69386	198.31207	1316.20667	-1165.26505	62.12919	1313.508	-1161.89438	193.27742	1367.91092	-1286.66641	44.51349	1364.62677	-1273.36426	125.53052	1202.18689	-1348.97369	131.05728	1262.86034	-1116.4624	131.52407	1166.74576	-1066.57494	294.63638	1334.1571	-1223.79578	339.0855	1113.65417	-1307.45499	353.90438	1026.53038	-1299.93134	341.76605	959.73495	-1333.36975	296.59042	799.89639	-1279.60037	366.70345	801.09352	-1292.0932	348.42628	732.44324	-1262.40517	-32.65401	1336.64719	-1206.28189	-90.9421	1128.52463	-1242.84691	-126.98304	1018.53043	-1177.68661	-134.77902	928.21121	-1139.76768	-72.57623	835.78323	-1022.11929	-147.04634	826.90002	-1020.79277	-134.71186	804.10233	-979.00307	248.21136	930.94414	-1139.27856	-14.75263	926.83472	-1166.00586	209.99487	999.66949	-1312.50549	49.56716	1015.02167	-1328.01804	259.64947	632.62806	-1176.37375	244.57426	517.06257	-1063.86024	195.345	325.84053	-1011.52222	229.71462	167.56279	-1063.04153	173.99527	113.53911	-1114.785	207.20264	97.56829	-929.8938	15.92468	661.47934	-1345.26215	32.09295	485.06451	-1262.79884	60.73419	317.06272	-1312.76215	73.79636	140.38488	-1411.57608	134.79657	106.43151	-1481.53	86.99087	69.26506	-1299.23096
101	3.343	209.73101	1580.57983	-1097.57126	40.60349	1561.76926	-1067.85103	218.78073	1557.93488	-1222.28081	3.5077	1551.06491	-1162.57599	197.89778	1307.36359	-1128.81264	62.0067	1304.83139	-1124.09729	192.06934	1358.58521	-1250.49072	43.12293	1355.79239	-1235.82428	123.38066	1192.81441	-1311.19995	131.27686	1253.84178	-1079.16916	131.95493	1157.8447	-1029.15573	293.89732	1324.40018	-1188.70934	335.24471	1105.44426	-1276.02112	351.17081	1018.33961	-1269.72015	338.22201	951.45943	-1303.16223	295.99298	791.18515	-1249.09279	365.72754	792.86453	-1263.9537	348.256	723.70117	-1234.20532	-33.33701	1327.52411	-1167.71088	-92.31809	1119.2485	-1203.12782	-128.11549	1009.79118	-1136.69327	-134.17173	920.12665	-1094.13536	-68.19869	834.22234	-974.19228	-142.68957	824.53125	-970.77652	-129.54393	804.65431	-928.28384	248.22538	921.43166	-1100.72731	-15.48101	918.04855	-1125.82832	209.29192	990.82275	-1273.92845	48.25989	1006.71463	-1288.10394	258.00215	621.02119	-1143.75237	244.57191	504.31767	-1031.76666	192.38724	326.15089	-951.93398	224.80949	160.85066	-970.26215	169.01382	98.73384	-1012.2821	199.12342	115.74731	-825.68779	15.40987	658.68408	-1313.37982	31.74903	479.02351	-1238.20976	61.06265	313.13931	-1297.2998	75.25784	141.82511	-1405.67245	136.60348	112.26553	-1478.04565	87.43475	68.96132	-1298.63907
102	3.377	210.5113	1573.15948	-1062.1067	41.41088	1555.99243	-1031.70029	219.18209	1548.50616	-1186.40076	3.99733	1544.07776	-1126.26328	198.26918	1298.38593	-1090.62851	62.14729	1295.81314	-1083.99246	190.78777	1350.32791	-1212.92046	41.67449	1347.41913	-1196.03027	121.678	1184.00696	-1271.50162	132.4262	1244.50027	-1040.18196	133.60523	1148.86681	-989.47411	293.337	1315.51331	-1152.08549	331.63315	1096.19789	-1241.27777	348.81893	1009.37569	-1235.21263	335.48306	942.83752	-1268.56148	296.91006	781.49406	-1215.1712	365.78266	783.86292	-1232.29431	350.71274	714.59969	-1202.94014	-33.85111	1318.16284	-1126.62209	-92.84544	1110.08438	-1163.57254	-129.28805	1000.60158	-1096.98044	-133.429	911.41808	-1052.02026	-62.79655	829.87923	-931.38237	-136.97312	819.5787	-925.22308	-123.01223	801.92711	-882.91435	249.18348	912.09801	-1060.26962	-15.45776	910.63576	-1083.51295	209.67297	982.50778	-1233.34579	47.92016	999.48349	-1246.14601	257.98832	610.52769	-1107.83348	246.05225	491.21998	-999.22379	190.39364	327.08817	-901.7131	220.0489	160.67848	-894.93988	163.13688	94.24271	-928.57452	191.5205	133.96555	-743.42499	14.10712	657.65099	-1279.42505	28.35629	474.80164	-1212.05246	58.38933	311.12185	-1280.38879	73.4603	146.76707	-1399.76166	134.49165	121.94188	-1473.84079	86.48584	68.69548	-1297.91611
103	3.41	211.21353	1568.16589	-1025.60707	42.22271	1551.94351	-994.50729	219.77818	1541.63467	-1149.61403	4.61707	1538.55362	-1088.84926	199.48835	1292.71667	-1050.58273	63.50638	1289.40735	-1042.11205	190.01713	1343.51608	-1173.99277	40.68112	1341.09253	-1154.87045	120.24066	1176.64711	-1229.8214	134.62596	1238.08327	-999.37965	136.84618	1143.47229	-947.05818	293.58255	1309.19388	-1114.7982	329.62791	1088.13622	-1201.94153	347.19898	1001.69815	-1195.22507	333.69736	936.11099	-1228.87794	299.47662	773.29361	-1177.53029	367.72583	777.12746	-1196.51283	355.96634	707.49306	-1168.09486	-33.21203	1311.0968	-1083.70056	-91.75955	1104.09912	-1124.2363	-129.42514	993.49289	-1058.75343	-131.99739	903.9106	-1013.36746	-57.54323	823.6068	-894.28726	-130.98558	813.09525	-885.4451	-116.33069	796.27411	-843.84048	250.7832	905.98557	-1018.60741	-14.24209	904.99611	-1038.86246	210.32703	977.14317	-1190.84183	48.0985	994.17778	-1201.38367	257.68921	604.18007	-1066.70212	243.97854	485.31601	-957.36679	187.98452	323.20816	-857.39822	216.96989	156.60625	-848.3326	160.11423	89.73069	-880.9684	183.28352	133.3627	-694.21371	12.04401	656.86768	-1240.82474	24.2283	471.55487	-1179.5929	54.0008	310.21591	-1258.33237	67.28709	155.72609	-1390.91537	128.04201	137.07634	-1467.00531	84.22114	68.42593	-1296.31012
104	3.443	211.64225	1566.55792	-988.03345	42.84415	1550.07095	-956.38947	220.22873	1538.19885	-1111.69434	5.21003	1534.97177	-1050.41962	201.50261	1290.56824	-1009.57291	65.36757	1286.71753	-999.1584	190.08636	1339.16641	-1133.68454	41.04953	1337.00424	-1112.51869	119.82463	1171.28296	-1185.97237	137.75858	1236.95366	-956.33965	140.84088	1142.9702	-902.67326	294.5339	1305.90515	-1075.64415	329.11903	1082.59613	-1158.62289	346.70204	996.96861	-1150.70511	333.38539	932.23633	-1184.56848	303.3744	768.00491	-1135.32997	371.07372	773.60573	-1155.58609	361.5918	703.21281	-1128.33549	-31.95366	1307.59262	-1040.23033	-89.06082	1102.41966	-1084.8407	-127.78095	989.82735	-1022.08008	-129.50002	899.0728	-978.61748	-53.16457	816.38245	-862.23923	-126.56926	805.43114	-852.761	-110.8286	787.96127	-811.78528	254.89969	903.71117	-973.26103	-11.20037	901.82961	-989.1964	209.84816	973.20595	-1146.06659	48.15123	989.74396	-1153.41698	257.44915	603.19946	-1019.56818	242.66865	483.79284	-912.74574	184.80568	311.49115	-823.45207	211.32191	144.3075	-828.69774	153.29944	80.86617	-866.0257	182.33599	107.99476	-679.36203	10.86818	655.67551	-1195.97305	20.0257	468.44868	-1137.79984	48.54447	310.47752	-1228.99879	60.88963	169.47166	-1375.59479	120.02866	158.67558	-1454.05518	81.19756	67.60571	-1292.73834
105	3.477	211.68159	1567.68738	-949.5076	42.93659	1550.15442	-917.75887	220.65327	1537.53235	-1072.68951	5.69024	1532.96371	-1011.60652	204.41704	1291.08994	-967.54906	67.9265	1287.14691	-956.00334	191.76489	1336.37085	-1092.85393	43.04856	1335.00626	-1070.55183	121.17537	1167.46384	-1140.42114	140.68279	1239.0554	-912.59903	144.68062	1146.35002	-856.81953	296.68051	1304.99268	-1034.5462	330.20416	1079.57527	-1112.02576	347.9826	994.73824	-1102.7301	334.78889	930.65636	-1136.42059	308.08683	765.22591	-1087.67365	375.59399	772.65114	-1109.73618	367.51934	701.58615	-1083.13133	-29.43743	1307.13867	-997.02408	-85.69878	1104.07425	-1045.53452	-124.17	989.07669	-986.46721	-126.007	896.56593	-947.33109	-50.13007	808.32321	-834.66705	-124.1342	796.87195	-826.67061	-107.73263	777.41219	-785.87234	257.20758	905.07965	-922.37389	-8.71693	901.02341	-936.29326	211.02966	972.82249	-1095.37994	47.82947	987.24037	-1102.37541	257.62777	601.37676	-980.32478	241.98971	477.07798	-880.73883	182.72463	303.82746	-796.44012	205.72851	137.44273	-813.98834	148.49775	79.58448	-851.28723	173.181	84.89534	-664.69139	10.90223	653.52577	-1143.60611	12.63472	465.22892	-1084.56375	39.88373	312.8009	-1189.7625	53.48999	188.63779	-1351.29578	112.88561	187.85255	-1428.33374	78.72149	65.64256	-1285.99106
106	3.51	211.46772	1574.80209	-909.94835	42.72435	1554.91333	-879.20334	221.3113	1543.99582	-1032.81601	5.99998	1537.04254	-972.9985	206.47007	1296.16119	-924.31404	69.6527	1294.27628	-913.58681	194.85912	1338.1842	-1049.68338	45.37721	1338.1282	-1028.93478	123.37937	1168.25516	-1092.827	143.16264	1246.16562	-867.59857	146.23899	1155.27199	-808.88252	298.76984	1307.54608	-991.08803	332.86259	1079.32632	-1062.6593	350.83839	994.73625	-1051.14853	337.90504	931.19102	-1084.12415	313.43576	765.36697	-1035.7489	380.5584	773.66493	-1058.24059	373.13725	702.17018	-1031.98769	-28.29674	1311.79321	-955.88928	-81.36105	1108.83499	-1007.74628	-118.55921	991.84036	-952.12151	-121.39938	897.88292	-919.02756	-48.91041	800.93956	-811.70639	-122.692	789.66927	-806.03737	-107.59737	767.05978	-766.44333	258.40143	911.94084	-873.81516	-4.90054	902.7224	-886.09581	212.06984	983.22189	-1043.87009	46.65887	990.38391	-1051.3855	262.38422	609.33441	-943.47435	244.82061	482.54822	-844.42993	178.14091	302.04502	-773.28873	205.90889	135.73782	-794.9205	152.02519	82.25459	-843.42232	160.55882	69.39725	-650.51888	10.23928	648.49884	-1082.11342	2.42968	461.84925	-1014.40727	27.89081	316.44583	-1133.11241	44.30119	213.03959	-1308.68774	105.91085	223.65559	-1379.82758	77.14833	61.51045	-1274.56345
